<?xml version="1.0" encoding="utf-8"?>
<!-- Generator: Adobe Illustrator 23.0.1, SVG Export Plug-In . SVG Version: 6.00 Build 0)  -->
<svg version="1.1" id="Layer_1" xmlns="http://www.w3.org/2000/svg" xmlns:xlink="http://www.w3.org/1999/xlink" x="0px" y="0px"
	 viewBox="0 0 1024 1024" enable-background="new 0 0 1024 1024" xml:space="preserve">
<path fill="none" stroke="#43780A" stroke-width="30" stroke-miterlimit="10" d="M920.55,343.14
	c0-110.84-89.85-200.69-200.69-200.69c-11.42,0-22.61,0.97-33.51,2.8C651.77,84.78,586.65,44.02,512,44.02
	S372.23,84.78,337.66,145.25c-10.9-1.83-22.09-2.8-33.51-2.8c-110.84,0-200.69,89.85-200.69,200.69
	c0,41.93,12.87,80.85,34.85,113.04c-3.41,12.5-5.25,25.64-5.25,39.22c0,82.02,66.49,148.51,148.51,148.51
	c18.27,0,35.76-3.31,51.92-9.34c13.24,16.79,24.48,33,33.98,48.91C400.79,739.23,415,795.37,415,871.21c0,53.57,43.43,97,97,97
	c53.57,0,97-43.43,97-97c0-75.83,14.21-131.97,47.52-187.72c9.5-15.91,20.75-32.12,33.98-48.91c16.16,6.03,33.66,9.34,51.92,9.34
	c82.02,0,148.51-66.49,148.51-148.51c0-13.58-1.83-26.72-5.25-39.22C907.68,423.99,920.55,385.07,920.55,343.14z"/>
<path fill="#97D45A" d="M512,968.21c-53.57,0-97-43.43-97-97c0-75.83-14.21-131.97-47.52-187.72
	c-36.54-61.15-98.69-126.79-201.53-212.84c-22.91-19.17-34.74-46.67-34.75-74.38c-0.01-21.98,7.4-44.09,22.61-62.26
	c34.38-41.08,95.55-46.52,136.64-12.15c92.86,77.7,161.2,112.35,221.56,112.35s128.7-34.65,221.56-112.35
	c41.08-34.38,102.26-28.94,136.64,12.15c15.21,18.18,22.62,40.28,22.61,62.26c-0.02,27.71-11.84,55.21-34.75,74.38
	C755.22,556.7,693.06,622.34,656.52,683.49C623.21,739.23,609,795.37,609,871.21C609,924.78,565.57,968.21,512,968.21z"/>
<path fill="#89C74A" d="M892.81,396.27c0.02-21.98-7.4-44.09-22.61-62.26c-34.38-41.09-95.55-46.52-136.64-12.15
	c-55.93,46.8-102.95,77.97-144.7,95.37L551.78,959.7c33.73-15.19,57.22-49.1,57.22-88.49c0-75.83,14.21-131.97,47.52-187.72
	c36.54-61.15,98.69-126.79,201.53-212.84C880.96,451.48,892.79,423.98,892.81,396.27z"/>
<circle fill="#6DB32B" cx="281.57" cy="495.41" r="148.51"/>
<circle fill="#62A623" cx="742.43" cy="495.41" r="148.51"/>
<circle fill="#6DB32B" cx="304.14" cy="343.14" r="200.69"/>
<circle fill="#62A623" cx="719.86" cy="343.14" r="200.69"/>
<circle fill="#6DB32B" cx="512" cy="244.71" r="200.69"/>
<circle fill="#6DB32B" cx="512" cy="497.71" r="200.69"/>
</svg>
