<?xml version="1.0" standalone="no"?>
<!DOCTYPE svg PUBLIC "-//W3C//DTD SVG 20010904//EN"
 "http://www.w3.org/TR/2001/REC-SVG-20010904/DTD/svg10.dtd">
<svg version="1.0" xmlns="http://www.w3.org/2000/svg"
 width="1024.000000pt" height="1024.000000pt" viewBox="0 0 1024.000000 1024.000000"
 preserveAspectRatio="xMidYMid meet">
<metadata>
Created by potrace 1.11, written by Peter Selinger 2001-2013
</metadata>
<g transform="translate(0.000000,1024.000000) scale(0.100000,-0.100000)"
fill="#000000" stroke="none">
<path d="M4905 9939 c-186 -19 -434 -77 -550 -128 -11 -5 -45 -19 -75 -31
-175 -71 -405 -212 -560 -344 -129 -110 -321 -329 -403 -458 -17 -27 -19 -28
-80 -21 -77 8 -310 8 -397 -1 -275 -27 -484 -86 -735 -207 -231 -112 -377
-213 -565 -393 -184 -175 -339 -393 -455 -639 -63 -135 -131 -336 -150 -446
-3 -19 -8 -37 -10 -41 -3 -4 -7 -32 -10 -61 -4 -30 -8 -59 -10 -66 -23 -70
-23 -472 -1 -593 3 -14 10 -54 16 -90 6 -36 18 -92 27 -125 8 -33 16 -67 18
-75 18 -84 149 -401 182 -441 7 -8 13 -19 13 -22 0 -4 14 -29 31 -57 17 -28
28 -57 25 -67 -5 -19 -14 -74 -26 -168 -4 -33 -6 -127 -5 -210 3 -138 7 -188
21 -255 3 -14 7 -38 10 -55 23 -138 111 -358 207 -517 83 -138 257 -333 383
-428 32 -25 61 -48 62 -52 2 -5 8 -8 14 -8 5 0 24 -11 42 -25 33 -25 212 -119
281 -147 100 -40 240 -80 330 -93 22 -4 51 -9 65 -11 48 -10 336 -12 400 -3
115 16 134 19 175 30 22 6 51 13 64 16 14 2 28 6 32 9 12 7 114 -133 228 -314
74 -116 189 -333 248 -467 60 -135 153 -435 177 -570 3 -16 8 -39 10 -50 3
-17 20 -121 31 -190 1 -11 6 -56 10 -100 4 -44 9 -91 11 -105 2 -14 6 -113 9
-220 9 -315 14 -358 52 -490 93 -328 349 -603 678 -729 202 -78 411 -92 640
-45 387 81 717 390 830 779 37 127 40 158 50 485 3 102 8 203 10 225 16 170
25 247 30 265 2 8 7 33 10 55 6 49 12 81 19 103 3 9 7 33 10 52 7 46 30 134
63 240 15 47 27 90 28 95 9 43 120 297 181 413 113 218 352 581 373 568 4 -3
18 -7 32 -10 47 -10 71 -15 87 -20 120 -36 476 -43 615 -11 12 3 33 7 47 9
209 36 469 152 657 296 334 253 547 599 628 1020 28 141 28 422 1 565 -3 17
-8 43 -11 59 -4 17 0 38 9 52 122 186 232 467 280 719 23 120 25 133 33 220
12 136 5 438 -11 487 -3 7 -7 31 -10 53 -31 253 -166 600 -327 840 -40 61 -81
119 -90 130 -119 143 -201 229 -304 320 -44 39 -204 157 -250 186 -22 13 -47
29 -56 34 -59 36 -231 119 -319 153 -203 79 -376 119 -590 139 -87 8 -297 8
-386 0 l-62 -6 -66 92 c-36 51 -78 108 -93 127 -57 70 -241 248 -318 308 -44
34 -84 66 -90 70 -159 124 -459 265 -710 333 -47 13 -40 12 -215 44 -104 19
-421 28 -545 14z"/>
</g>
</svg>
